<?xml version="1.0" encoding="UTF-8"?>
<svg id="Layer_1" data-name="Layer 1" xmlns="http://www.w3.org/2000/svg" viewBox="0 0 1042.882 311.105">
  <defs>
    <style>
      .cls-1 {
        fill: #ff5a01;
      }
    </style>
  </defs>
  <g>
    <path class="cls-1" d="M317.406.273c5.292-.468,10.658-.354,15.911.492,4.406.763,8.63,2.329,12.726,4.096,1.62.389,3.308.054,4.962.197,8.591.674,16.61,4.573,23.434,9.679,7.926,6.183,14.592,14.656,16.837,24.61.29.93,1.275,1.305,1.989,1.861,6.139,4.13,10.456,10.644,12.411,17.738,1.772,7.508,1.684,15.635-1.295,22.833-1.92,4.18-4.583,8.241-8.551,10.717-1.108.743-2.57,1.004-3.485,1.979-.99,6.523-3.609,12.952-8.384,17.624-5.893,6.361-14.533,9.846-23.158,9.89-8.285.256-16.522-2.585-23.138-7.532-2.742-1.999-6.183-4.5-5.849-8.335.034-3.357,3.673-5.853,6.843-4.844,2.688.487,4.204,2.934,6.193,4.539,8.059,6.553,20.499,7.001,29.065,1.172,4.514-3.161,7.444-8.295,8.305-13.696.507-5.42-1.216-10.973-4.657-15.187-3.933-5.341-10.747-8.098-17.28-7.783-1.398.005-2.855.197-4.185-.33-2.112-.714-3.643-2.919-3.436-5.164-.113-2.585,2.245-4.45,4.583-4.918,5.12-.916,10.427-.212,15.281,1.595,9.29,3.894,16.492,12.298,18.939,22.07,6.843-8.108,7.266-21.056.714-29.464-5.125-6.671-13.1-11.131-21.499-11.835-3.766-.098-7.606-.197-11.274.802-7.616,1.895-14.242,6.297-20.706,10.575-5.947,4.066-13.071,6.183-20.224,6.602-5.927.35-12.061,1.403-17.117,4.697-3.426,2.462-6.449,5.75-7.872,9.782-1.58,4.677-.999,10.146,1.974,14.159,2.831,3.988,7.847,6.026,12.657,5.844,6.533.271,12.445-2.954,17.994-6.001,5.376-3.264,11.175-6.07,17.447-7.035,7.503-1.093,15.434-.645,22.414,2.516,1.728.96,3.85,2.107,4.145,4.283.699,3.402-2.885,6.725-6.213,5.888-4.746-1.211-9.452-3.141-14.439-2.875-2.673-.089-5.361.049-7.941.802-8.788,2.245-15.626,8.748-24.138,11.653-6.818,2.176-14.567,2.171-20.992-1.236-6.646-3.18-11.461-9.58-13.218-16.679-2.191-.325-4.406-.069-6.607-.256-8.266-.891-16.32-4.588-21.912-10.826-10.2-10.644-10.781-28.288-2.924-40.433,4.332-6.843,11.116-12.199,18.88-14.582,1.826-.63,3.958-.63,5.553-1.807,11.357-10.136,25.959-16.915,41.235-17.875ZM287.824,20.999c3.505,1.674,7.207,3.116,10.2,5.661,1.851,1.6,3.604,3.353,4.967,5.391,1.142,1.767,2.023,4.022,1.029,6.06-1.103,3.131-5.543,3.943-7.97,1.89-2.009-1.644-3.077-4.125-4.972-5.878-3.549-3.761-8.871-5.691-14.006-5.159-6.838.734-13.016,5.076-16.561,10.9-5.494,8.384-5.366,20.307,1.088,28.155,4.874,6.016,12.938,8.709,20.514,8.344.822-5.819,3.515-11.416,7.892-15.389,6.774-6.567,16.167-9.802,25.427-10.634,4.889-.379,9.885-1.029,14.287-3.338,4.357-1.994,8-5.169,12.17-7.493,7.567-4.608,16.364-7.537,25.294-7.276,4.165-.098,8.236.906,12.283,1.782-3.338-5.711-8.349-10.353-13.863-13.937-5.696-3.569-12.554-5.681-19.293-4.637-8.477,1.403-16.413,6.72-20.475,14.355-1.349,2.186-1.029,5.125-2.905,7.01-1.383,1.383-3.471,1.428-5.282,1.152-2.555-.635-4.16-3.476-3.515-6.001.418-3.234,1.644-6.311,3.333-9.088,3.633-5.701,8.911-10.328,14.981-13.292-2.698-.094-5.366-.591-8.069-.482-13.041.123-25.89,4.431-36.553,11.904Z"/>
    <path class="cls-1" d="M115.135,6.84c3.919-.492,7.877-.389,11.81-.679,6.4.35,12.854.143,19.205,1.206,12.918,1.575,25.575,5.209,37.375,10.693,9.521,4.411,18.648,9.738,26.899,16.236-.458,3.18-1.689,6.183-2.097,9.373-2.324,12.82-1.098,26.515,4.77,38.262,3.899,7.961,9.949,14.789,17.137,19.948,8.866,6.316,19.49,9.969,30.281,11.082.827,2.092,1.054,4.342,1.487,6.538,1.94,10.535,2.742,21.326,1.664,32.009-1.649,18.944-8.221,37.326-18.264,53.429-5.209,8.33-11.672,15.798-18.624,22.715-12.849,12.298-28.297,21.898-45.08,27.825-27.884,9.984-59.027,10.993-87.329,2.068-17.846-5.366-34.343-14.872-48.403-27.052-16.428-14.291-29.592-32.467-37.361-52.853C2.811,162.417-.197,146.098.01,129.802c.251-20.78,6.021-41.521,16.911-59.253,13.144-21.514,32.502-38.995,54.773-50.692,13.587-6.784,28.283-11.584,43.441-13.016ZM75.529,63.086c-15.665,12.16-26.85,30.045-30.606,49.55-3.18,16.842-1.738,34.466,3.554,50.732,5.721,17.24,16.551,32.92,31.3,43.638,14.754,10.279,32.615,16.182,50.628,16.231,18.451.35,36.952-5.258,52.194-15.65,14.518-10.053,26.072-24.733,31.168-41.752,3.584-10.811,4.327-22.326,3.997-33.644-4.672-1.319-9.206-3.092-13.504-5.346-9.698-5.209-18.545-12.248-25.083-21.169-9.211-12.288-13.651-28.061-12.15-43.337.005-2.457,1.009-4.775,1.127-7.207-9.954-5.341-21.115-8.216-32.295-9.501-21.361-2.274-43.421,4.258-60.331,17.457Z"/>
    <path class="cls-1" d="M323.629,134.13c2.85-.448,5.735-.384,8.596-.064,9.487,1.506,17.162,10.235,17.383,19.864.084,29.853.005,59.711.039,89.569.192,6.213-2.649,12.47-7.527,16.349-4.047,3.51-9.501,5.061-14.799,4.785-8.743.212-17.117-5.839-19.84-14.109-.763-2.073-1.201-4.273-1.152-6.484-.005-29.715.01-59.431-.005-89.141-.217-9.9,7.616-19.047,17.304-20.77Z"/>
  </g>
  <g fill="#ffffff">
    <path d="M529.892,53.225c17.36,20.16,38.08,34.72,60.76,46.76-2.52,2.1-5.6,5.6-7.28,8.819-5.46-3.22-10.92-6.58-16.1-10.08v9.1h-37.8v21.84h37.8v9.38h-37.8v23.1h54.6v9.52h-119.419v-9.52h53.899v-23.1h-36.12v-9.38h36.12v-21.84h-36.96v-9.1c-5.46,3.5-11.06,6.72-16.66,9.52-1.54-2.8-4.62-6.3-7.279-8.54,25.619-11.62,51.239-32.2,65.379-54.46l9.24,4.34-2.38,3.641ZM566.991,98.445c-15.54-10.5-29.68-22.26-42.979-37.52-11.48,14.28-26.18,27.3-42,37.52h84.979Z"/>
    <path d="M612.352,139.184v-48.3h-14.84v-9.939h14.84v-32.48h9.8v32.48h12.74v9.939h-12.74v43.68l13.021-6.3,2.8,9.38c-12.74,6.72-26.46,13.72-37.52,19.04l-3.92-10.36c4.479-1.82,9.939-4.34,15.819-7.14ZM682.352,137.364l.979,8.82c-16.939,4.9-34.579,10.08-48.02,13.86l-2.66-10.08c12.46-2.8,31.36-7.84,49.7-12.6ZM701.251,140.864c3.221,15.54,7.561,24.64,12.601,24.64,2.66,0,4.06-5.6,4.62-20.16,1.96,2.24,5.319,4.48,7.56,5.46-1.68,18.62-4.62,24.64-13.439,24.64-8.54,0-14.561-8.96-18.9-23.94-7,8.82-14.979,16.38-23.939,22.68-1.4-1.68-5.46-5.18-7.7-6.72,11.34-7.28,21-16.66,28.84-27.86-3.36-16.94-5.18-38.5-6.16-62.44h-47.46v-9.66h47.18l-.279-20.58h10.08l.14,20.58h22.12c-3.5-4.34-10.5-10.64-16.66-15.12l6.02-5.32c6.16,4.2,13.58,10.22,17.08,14.42l-6.16,6.02h7.561v9.66h-29.68c.699,18.76,2.1,35.56,4.06,49.42,5.6-10.78,10.08-22.96,13.44-36.26l9.52,1.96c-4.9,18.479-11.76,34.72-20.44,48.58ZM676.472,131.064h-35v-40.74h35v40.74ZM667.932,122.524v-23.66h-18.34v23.66h18.34Z"/>
    <path d="M758.386,58.405h38.22v8.54h-20.72v8.26l-.14,5.04h24.5v8.68h-26.181l-.699,2.24c5.739,3.08,21.699,12.88,25.76,15.68l-7.28,7.14c-4.2-3.5-14.7-10.92-21.7-15.68-4.76,8.12-13.16,16.1-27.859,22.68-1.4-2.24-4.48-5.46-6.86-7.28,17.92-7,25.34-16.24,28.42-24.78h-27.02v-8.68h28.84l.279-5.04v-8.26h-11.899c-2.8,4.9-5.88,9.24-8.96,12.74-1.82-1.54-5.88-4.06-8.26-5.18,7-7,12.6-17.64,15.68-28.14l9.66,1.96c-1.12,3.36-2.38,6.86-3.78,10.08ZM843.365,175.304h-10.64v-4.9h-65.24v5.18h-10.359v-57.82h86.239v57.54ZM832.726,139.604v-13.16h-65.24v13.16h65.24ZM767.486,161.724h65.24v-13.86h-65.24v13.86ZM855.266,106.985h-49.14v-48.86h49.14v48.86ZM845.046,97.464v-29.819h-29.12v29.819h29.12Z"/>
    <path d="M933.736,85.565l-9.24,4.2c-.84-2.24-1.819-4.76-3.079-7.42-38.36,2.66-43.261,3.36-46.2,4.62-.561-2.24-2.38-7.28-3.64-10.08,2.1-.42,4.199-2.52,6.579-5.46,2.381-2.94,10.08-14,14.561-24.92l10.92,3.36c-4.9,9.38-11.2,18.76-17.22,26.32l30.8-1.82c-3.08-5.46-6.58-11.06-10.08-15.82l8.54-3.359c7.279,9.38,15.12,21.979,18.06,30.38ZM922.535,173.484c-3.92,1.54-9.939,1.68-18.76,1.68-.56-2.8-2.1-6.86-3.5-9.66,6.58.28,12.46.28,14.561.14,1.819,0,2.239-.56,2.239-2.38v-16.38h-29.819v28.56h-9.8v-78.82h49.979v66.78c0,5.46-1.12,8.4-4.9,10.08ZM887.256,105.584v12.04h29.819v-12.04h-29.819ZM887.256,138.624h29.819v-12.74h-29.819v12.74ZM950.955,79.124v14.28c0,4.479,1.12,5.32,7.42,5.32h22.261c5.46,0,6.439-2.38,7.14-16.24,2.1,1.82,6.3,3.36,9.24,4.06-1.12,17.08-4.341,21.7-15.54,21.7h-23.94c-13.439,0-16.939-3.22-16.939-14.7v-46.479h10.359v23.38c12.04-4.06,24.641-8.96,32.62-13.16l7,7.84c-11.06,5.04-26.18,10.08-39.62,14ZM950.955,143.244v16.38c0,4.48,1.261,5.32,7.84,5.32h22.681c5.739,0,6.859-2.66,7.42-18.48,2.38,1.68,6.58,3.36,9.38,4.06-1.26,18.76-4.2,23.8-15.96,23.8h-24.5c-13.58,0-17.22-3.08-17.22-14.84v-47.32h10.359v22.4c12.74-4.34,26.181-9.66,34.3-14.84l6.86,7.84c-10.92,6.16-27.02,11.62-41.16,15.68Z"/>
  </g>
  <g fill="#ffffff">
    <path d="M417.546,219.151c0-17.521,11.92-28.721,27.601-28.721,15.76,0,27.681,11.2,27.681,28.721s-11.921,28.801-27.681,28.801c-15.681,0-27.601-11.2-27.601-28.801ZM462.587,219.151c0-11.521-6.32-19.36-17.44-19.36s-17.36,7.84-17.36,19.36c0,11.601,6.24,19.44,17.36,19.44s17.44-7.84,17.44-19.44Z"/>
    <path d="M538.099,246.992h-9.76v-22.48c0-3.92-1.28-8.4-7.04-8.4-5.921,0-7.36,4.561-7.36,8.641v22.24h-9.761v-22.48c0-3.92-1.279-8.4-7.04-8.4s-7.439,4.561-7.439,8.641v22.24h-9.761v-38.4h8.8l.48,5.119c2.32-3.84,6.24-6.08,11.44-6.08,5.36,0,9.44,2.721,11.601,7.12,2.399-4.479,6.64-7.12,12.319-7.12,8.801,0,13.521,6.16,13.521,15.281v24.08Z"/>
    <path d="M581.282,222.912v24.08h-9.761v-22.32c0-4.4-1.76-8.561-7.6-8.561s-8,4.08-8,8.721v22.16h-9.761v-38.4h8.8l.4,4.88c2.561-3.681,6.561-5.841,11.681-5.841,8.88,0,14.24,5.841,14.24,15.281Z"/>
    <path d="M599.265,191.39v10.48h-10.48v-10.48h10.48ZM589.105,208.592h9.761v38.4h-9.761v-38.4Z"/>
    <path d="M605.951,229.391v-8.96h27.361v8.96h-27.361Z"/>
    <path d="M642.424,246.992v-55.602h10.32v55.602h-10.32Z"/>
    <path d="M697.256,222.912v24.08h-9.761v-22.32c0-4.4-1.76-8.561-7.6-8.561s-8,4.08-8,8.721v22.16h-9.761v-38.4h8.8l.4,4.88c2.561-3.681,6.561-5.841,11.681-5.841,8.88,0,14.24,5.841,14.24,15.281Z"/>
    <path d="M727.959,217.151h-10.48v21.041h10.161v8.8h-9.761c-5.92,0-10.16-2.72-10.16-10.24v-19.601h-6.561v-8.56h6.561v-7.521l9.76-5.601v13.121h10.48v8.56Z"/>
    <path d="M741.302,231.151c.641,5.2,3.761,8.32,9.28,8.32,4.08,0,6.48-1.68,7.921-4.72h10.479c-2,7.2-8.319,13.2-18.4,13.2-12.32,0-19.601-8.8-19.601-20.16s7.601-20.161,19.841-20.161c11.28,0,18.24,7.681,18.24,19.841,0,1.2-.08,2.4-.239,3.68h-27.521ZM741.302,224.512h18.001c-.08-5.44-3.12-8.4-8.48-8.4-5.52,0-8.64,3.2-9.521,8.4Z"/>
    <path d="M785.622,246.992h-9.84v-55.602h9.84v55.602Z"/>
    <path d="M803.726,246.992h-9.84v-55.602h9.84v55.602Z"/>
    <path d="M822.19,191.39v10.48h-10.48v-10.48h10.48ZM812.03,208.592h9.761v38.4h-9.761v-38.4Z"/>
    <path d="M867.23,208.592v36.08c0,12.24-6.96,20.48-20.48,20.48-10.96,0-17.921-5.68-18.801-15.36h9.761c.56,4.561,3.84,6.881,9.04,6.881,7.44,0,10.721-5.041,10.721-12.241v-2.64c-2.721,3.12-6.721,4.88-11.761,4.88-10.8,0-17.921-8.32-17.921-19.521s7.121-19.521,17.921-19.521c5.36,0,9.521,2.08,12.4,5.601l.399-4.64h8.721ZM847.949,238.192c7.28,0,9.84-5.601,9.84-11.041s-2.56-11.04-9.84-11.04-10.16,5.601-10.16,11.04,2.88,11.041,10.16,11.041Z"/>
    <path d="M883.676,231.151c.641,5.2,3.761,8.32,9.28,8.32,4.08,0,6.48-1.68,7.921-4.72h10.479c-2,7.2-8.319,13.2-18.4,13.2-12.32,0-19.6-8.8-19.6-20.16s7.6-20.161,19.84-20.161c11.28,0,18.24,7.681,18.24,19.841,0,1.2-.08,2.4-.239,3.68h-27.521ZM883.676,224.512h18.001c-.08-5.44-3.12-8.4-8.48-8.4-5.52,0-8.64,3.2-9.521,8.4Z"/>
    <path d="M953.198,222.912v24.08h-9.761v-22.32c0-4.4-1.76-8.561-7.6-8.561s-8,4.08-8,8.721v22.16h-9.761v-38.4h8.8l.4,4.88c2.561-3.681,6.561-5.841,11.681-5.841,8.88,0,14.24,5.841,14.24,15.281Z"/>
    <path d="M988.029,233.552h10.24c-2.16,8.4-9.36,14.4-19.44,14.4-12.16,0-20.161-8.8-20.161-20.16s8.001-20.161,20.161-20.161c10.08,0,17.28,5.921,19.44,14.4h-10.24c-1.521-3.68-4.641-5.92-9.2-5.92-6.48,0-10.16,4.641-10.16,11.681s3.68,11.68,10.16,11.68c4.56,0,7.68-2.16,9.2-5.92Z"/>
    <path d="M1012.002,231.151c.641,5.2,3.761,8.32,9.28,8.32,4.08,0,6.48-1.68,7.921-4.72h10.479c-2,7.2-8.319,13.2-18.4,13.2-12.32,0-19.6-8.8-19.6-20.16s7.6-20.161,19.84-20.161c11.28,0,18.24,7.681,18.24,19.841,0,1.2-.08,2.4-.239,3.68h-27.521ZM1012.002,224.512h18.001c-.08-5.44-3.12-8.4-8.48-8.4-5.52,0-8.64,3.2-9.521,8.4Z"/>
  </g>
</svg>
